<svg width="41" height="42" viewBox="0 0 41 42" fill="none" xmlns="http://www.w3.org/2000/svg">
<path fill-rule="evenodd" clip-rule="evenodd" d="M29.6811 1.11249C29.4854 1.175 29.1813 1.36859 29.0054 1.54275C28.8295 1.71683 26.9302 3.79399 24.7847 6.15862C22.1679 9.04274 20.8226 10.5866 20.6976 10.8489C20.3272 11.6259 20.6138 12.6475 21.3449 13.1556L21.6939 13.3981L23.5357 13.4232L25.3775 13.4483L25.3987 26.5458L25.4199 39.6433L25.665 40.0497C25.817 40.3015 26.061 40.5516 26.3068 40.7073L26.7033 40.9585H30.2736H33.844L34.2235 40.7299C34.4321 40.6042 34.6826 40.3866 34.7798 40.2466C35.1954 39.6485 35.1805 40.1665 35.1805 26.3393V13.4483L37.0304 13.4232L38.8803 13.3981L39.2226 13.1549C39.7421 12.7856 40 12.2743 40 11.6133C40 11.1858 39.958 11.0015 39.7975 10.7261C39.6861 10.5348 38.0459 8.66711 36.1525 6.57551C31.2537 1.1638 31.3463 1.25951 30.8603 1.11158C30.3706 0.962572 30.1497 0.962738 29.6811 1.11249ZM32.3744 7.91924L33.9498 9.66252L33.4109 9.71656C32.745 9.78339 32.5257 9.86881 32.1478 10.2088C31.5232 10.7709 31.5806 9.46678 31.5355 24.1068L31.495 37.2229H30.2799H29.0649L29.0244 24.1068C28.9873 12.0872 28.9727 10.9699 28.8494 10.7417C28.5256 10.1423 27.9462 9.79119 27.1546 9.71498L26.6097 9.66252L28.4369 7.64264L30.264 5.62277L30.5315 5.89937C30.6785 6.05153 31.5079 6.96044 32.3744 7.91924ZM14.2218 17.4329C13.8388 17.6272 13.5039 17.9928 13.3385 18.397C13.2489 18.6164 13.2297 20.5301 13.2311 29.1057C13.2328 39.0698 13.2397 39.5626 13.3821 39.884C13.5769 40.3235 14.1197 40.7932 14.5659 40.9084C14.7976 40.9681 16.1292 41 18.394 41C22.3439 41 22.4801 40.9829 23.0317 40.4176C23.634 39.8003 23.6032 40.4494 23.5787 28.9156L23.5569 18.6279L23.3821 18.2959C23.2859 18.1133 23.1036 17.8631 22.9771 17.74C22.4812 17.2576 22.4866 17.2582 18.3552 17.2583C14.6672 17.2584 14.5566 17.263 14.2218 17.4329ZM19.8714 29.1291V37.2644H18.3729H16.8744V29.1291V20.9938H18.3729H19.8714V29.1291ZM2.21328 22.3481C1.82019 22.4758 1.219 23.1153 1.09726 23.5354C1.02225 23.7942 0.998679 25.7671 1.00006 31.6706C1.00184 39.3359 1.00459 39.4704 1.16708 39.8378C1.37266 40.3025 1.59444 40.5502 2.01078 40.7798C2.32944 40.9556 2.39812 40.9585 6.1823 40.9585C10.0024 40.9585 10.0323 40.9572 10.3662 40.7741C10.7793 40.5477 11.1508 40.0991 11.2739 39.6783C11.4017 39.241 11.4044 24.0039 11.2768 23.5257C11.1621 23.096 10.5496 22.479 10.1009 22.3412C9.65763 22.2051 2.63456 22.2112 2.21328 22.3481ZM7.72131 31.6213V37.2681L6.20255 37.2455L4.6838 37.2229L4.66298 31.5988L4.64216 25.9746H6.18174H7.72131V31.6213Z" stroke="#16C198"/>
</svg>
