<svg width="19" height="18" viewBox="0 0 19 18" fill="none" xmlns="http://www.w3.org/2000/svg">
<path fill-rule="evenodd" clip-rule="evenodd" d="M9.20695 0.0356493C9.06221 0.0985652 8.8754 0.270484 8.79398 0.415753C8.75185 0.490894 8.73007 2.064 8.71191 6.34499L8.68716 12.172L7.31454 11.0406C5.88232 9.8602 5.79035 9.80357 5.42163 9.87503C5.09958 9.93749 4.80145 10.3068 4.80145 10.6433C4.80145 10.714 4.83714 10.864 4.8808 10.9767C4.94896 11.1528 5.24714 11.4188 7.00333 12.8703C8.12707 13.7992 9.13107 14.5957 9.23442 14.6403C9.64784 14.8188 9.63656 14.826 11.972 12.8964C13.1436 11.9284 14.1388 11.0787 14.1835 11.0082C14.4683 10.5591 14.233 9.95744 13.7091 9.79524C13.3624 9.68792 13.2318 9.76802 11.7374 11.0044C10.9726 11.6372 10.3357 12.1549 10.322 12.1549C10.3083 12.1549 10.2913 9.53257 10.2842 6.32744C10.2712 0.531969 10.2706 0.499181 10.1691 0.35872C10.1129 0.281021 10.0088 0.17253 9.93766 0.117644C9.78728 0.00168477 9.38822 -0.0431235 9.20695 0.0356493ZM0.470245 11.5082C0.286899 11.5959 0.122511 11.7764 0.052816 11.9664C0.0189584 12.0588 0 12.775 0 13.9634C0 15.4622 0.0145033 15.8738 0.0757836 16.117C0.298185 16.9993 0.957914 17.6788 1.81628 17.9099C2.24351 18.0248 16.7643 18.0248 17.1915 17.9099C18.0727 17.6727 18.7766 16.9215 18.9564 16.0262C18.9925 15.8465 19.0065 15.1029 18.9972 13.8553C18.9836 12.0305 18.9791 11.9523 18.881 11.8165C18.687 11.5481 18.5288 11.4644 18.2158 11.4644C17.9028 11.4644 17.7447 11.5481 17.5506 11.8165C17.4529 11.9517 17.4475 12.0391 17.4238 13.8941C17.4001 15.749 17.3948 15.8365 17.297 15.9717C17.2409 16.0493 17.1334 16.1603 17.0583 16.2183C16.9216 16.3237 16.9185 16.3238 9.5039 16.3238C2.08932 16.3238 2.0862 16.3237 1.94954 16.2183C1.87435 16.1603 1.76693 16.0493 1.7108 15.9717C1.61304 15.8365 1.60769 15.749 1.58398 13.8941C1.56027 12.0391 1.55493 11.9517 1.45717 11.8165C1.40103 11.7388 1.29689 11.6304 1.22576 11.5755C1.06171 11.449 0.6675 11.4138 0.470245 11.5082Z" fill="white"/>
</svg>
