<svg width="49" height="33" viewBox="0 0 49 33" fill="none" xmlns="http://www.w3.org/2000/svg">
<path d="M48.25 18C48.25 20.8684 45.854 23.6763 41.4942 25.8117C37.1838 27.923 31.1764 29.25 24.5 29.25C17.8236 29.25 11.8162 27.923 7.50578 25.8117C3.146 23.6763 0.75 20.8684 0.75 18C0.75 15.1316 3.146 12.3237 7.50578 10.1883C11.8162 8.07705 17.8236 6.75 24.5 6.75C31.1764 6.75 37.1838 8.07705 41.4942 10.1883C45.854 12.3237 48.25 15.1316 48.25 18Z" stroke="#16C198" stroke-width="1.5"/>
<mask id="path-2-inside-1_2028_2" fill="white">
<path d="M38 12C38 18.6274 32.6274 24 26 24C19.3726 24 14 18.6274 14 12C14 5.37258 19.3726 0 26 0C32.6274 0 38 5.37258 38 12ZM24.2511 12C24.2511 12.9659 25.0341 13.7489 26 13.7489C26.9659 13.7489 27.7489 12.9659 27.7489 12C27.7489 11.0341 26.9659 10.2511 26 10.2511C25.0341 10.2511 24.2511 11.0341 24.2511 12Z"/>
</mask>
<path d="M38 12C38 18.6274 32.6274 24 26 24C19.3726 24 14 18.6274 14 12C14 5.37258 19.3726 0 26 0C32.6274 0 38 5.37258 38 12ZM24.2511 12C24.2511 12.9659 25.0341 13.7489 26 13.7489C26.9659 13.7489 27.7489 12.9659 27.7489 12C27.7489 11.0341 26.9659 10.2511 26 10.2511C25.0341 10.2511 24.2511 11.0341 24.2511 12Z" fill="#191A1F" stroke="#191A1F" stroke-width="3" mask="url(#path-2-inside-1_2028_2)"/>
<mask id="path-3-inside-2_2028_2" fill="white">
<path d="M38 12C38 18.6274 32.6274 24 26 24C19.3726 24 14 18.6274 14 12C14 5.37258 19.3726 0 26 0C32.6274 0 38 5.37258 38 12ZM18.736 12C18.736 16.0118 21.9882 19.264 26 19.264C30.0118 19.264 33.264 16.0118 33.264 12C33.264 7.98822 30.0118 4.73603 26 4.73603C21.9882 4.73603 18.736 7.98822 18.736 12Z"/>
</mask>
<path d="M38 12C38 18.6274 32.6274 24 26 24C19.3726 24 14 18.6274 14 12C14 5.37258 19.3726 0 26 0C32.6274 0 38 5.37258 38 12ZM18.736 12C18.736 16.0118 21.9882 19.264 26 19.264C30.0118 19.264 33.264 16.0118 33.264 12C33.264 7.98822 30.0118 4.73603 26 4.73603C21.9882 4.73603 18.736 7.98822 18.736 12Z" fill="#16C198" stroke="#191A1F" stroke-width="3" mask="url(#path-3-inside-2_2028_2)"/>
<mask id="path-4-outside-3_2028_2" maskUnits="userSpaceOnUse" x="5" y="21" width="12" height="12" fill="black">
<rect fill="white" x="5" y="21" width="12" height="12"/>
<path d="M15 27C15 29.2091 13.2091 31 11 31C8.79086 31 7 29.2091 7 27C7 24.7909 8.79086 23 11 23C13.2091 23 15 24.7909 15 27ZM9.50229 27C9.50229 27.8272 10.1728 28.4977 11 28.4977C11.8272 28.4977 12.4977 27.8272 12.4977 27C12.4977 26.1728 11.8272 25.5023 11 25.5023C10.1728 25.5023 9.50229 26.1728 9.50229 27Z"/>
</mask>
<path d="M15 27C15 29.2091 13.2091 31 11 31C8.79086 31 7 29.2091 7 27C7 24.7909 8.79086 23 11 23C13.2091 23 15 24.7909 15 27ZM9.50229 27C9.50229 27.8272 10.1728 28.4977 11 28.4977C11.8272 28.4977 12.4977 27.8272 12.4977 27C12.4977 26.1728 11.8272 25.5023 11 25.5023C10.1728 25.5023 9.50229 26.1728 9.50229 27Z" fill="#32353D"/>
<path d="M15 27C15 29.2091 13.2091 31 11 31C8.79086 31 7 29.2091 7 27C7 24.7909 8.79086 23 11 23C13.2091 23 15 24.7909 15 27ZM9.50229 27C9.50229 27.8272 10.1728 28.4977 11 28.4977C11.8272 28.4977 12.4977 27.8272 12.4977 27C12.4977 26.1728 11.8272 25.5023 11 25.5023C10.1728 25.5023 9.50229 26.1728 9.50229 27Z" stroke="#191A1F" stroke-width="3" mask="url(#path-4-outside-3_2028_2)"/>
<mask id="path-5-outside-4_2028_2" maskUnits="userSpaceOnUse" x="5" y="21" width="12" height="12" fill="black">
<rect fill="white" x="5" y="21" width="12" height="12"/>
<path d="M15 27C15 29.2091 13.2091 31 11 31C8.79086 31 7 29.2091 7 27C7 24.7909 8.79086 23 11 23C13.2091 23 15 24.7909 15 27ZM8.53303 27C8.53303 28.3625 9.63753 29.467 11 29.467C12.3625 29.467 13.467 28.3625 13.467 27C13.467 25.6375 12.3625 24.533 11 24.533C9.63753 24.533 8.53303 25.6375 8.53303 27Z"/>
</mask>
<path d="M15 27C15 29.2091 13.2091 31 11 31C8.79086 31 7 29.2091 7 27C7 24.7909 8.79086 23 11 23C13.2091 23 15 24.7909 15 27ZM8.53303 27C8.53303 28.3625 9.63753 29.467 11 29.467C12.3625 29.467 13.467 28.3625 13.467 27C13.467 25.6375 12.3625 24.533 11 24.533C9.63753 24.533 8.53303 25.6375 8.53303 27Z" fill="#16C198"/>
<path d="M15 27C15 29.2091 13.2091 31 11 31C8.79086 31 7 29.2091 7 27C7 24.7909 8.79086 23 11 23C13.2091 23 15 24.7909 15 27ZM8.53303 27C8.53303 28.3625 9.63753 29.467 11 29.467C12.3625 29.467 13.467 28.3625 13.467 27C13.467 25.6375 12.3625 24.533 11 24.533C9.63753 24.533 8.53303 25.6375 8.53303 27Z" stroke="#191A1F" stroke-width="3" mask="url(#path-5-outside-4_2028_2)"/>
<path d="M26.704 9.40039H27.8V15.0004H26.704V12.6804H24.624V15.0004H23.52V9.40039H24.624V11.6244H26.704V9.40039Z" fill="#16C198"/>
</svg>
