<svg width="18" height="18" viewBox="0 0 18 18" fill="none" xmlns="http://www.w3.org/2000/svg">
<path fill-rule="evenodd" clip-rule="evenodd" d="M8.5895 0.00591575C5.3883 0.189109 2.61553 1.91564 1.09414 4.67313C0.395027 5.94024 0.0420354 7.24855 0.00456658 8.71149C-0.0214544 9.72847 0.0617328 10.4557 0.305516 11.3421C1.19263 14.5679 3.72771 17.0115 6.99044 17.7856C7.70373 17.9548 8.13289 18 9.0256 18C10.1185 18 10.809 17.8958 11.7876 17.5833C12.456 17.3698 13.3411 16.9575 13.7231 16.6817C14.2909 16.2718 14.1095 15.338 13.4265 15.1544C13.1679 15.0849 12.9839 15.1342 12.4218 15.4241C11.627 15.8339 11.0009 16.0434 10.1143 16.196C9.61213 16.2825 8.40495 16.2827 7.89899 16.1963C6.3035 15.9241 4.99783 15.2586 3.87886 14.1472C1.08567 11.3729 1.02992 6.88749 3.7533 4.04724C5.70494 2.01191 8.61199 1.28287 11.2788 2.16001C12.3974 2.52791 13.384 3.14464 14.2056 3.98969C14.8124 4.61384 15.1855 5.14263 15.5491 5.89417C16.303 7.45214 16.4733 9.18834 16.0373 10.8701C15.8998 11.4004 15.814 11.5916 15.617 11.8064C14.9513 12.5322 13.7317 12.2583 13.4376 11.3169C13.3722 11.1072 13.3685 10.9458 13.3685 8.26879C13.3685 6.15534 13.3573 5.40453 13.3243 5.29305C13.232 4.98179 12.8323 4.69124 12.4963 4.69124C12.0774 4.69124 11.6241 5.11188 11.6241 5.50058C11.6241 5.54422 11.5589 5.51699 11.3664 5.3929C10.4856 4.82503 9.38681 4.58827 8.35313 4.74358C7.41001 4.88527 6.62117 5.28562 5.9319 5.97247C5.34138 6.56091 4.98105 7.18611 4.76365 7.99965C4.67268 8.34 4.66552 8.41874 4.66745 9.05557C4.66934 9.67729 4.67857 9.77693 4.76292 10.0878C5.31267 12.1133 7.13228 13.4681 9.17097 13.3699C10.1683 13.3218 11.0364 12.9888 11.8279 12.3506L11.9408 12.2596L12.0779 12.4931C12.3833 13.0136 12.9899 13.5266 13.5612 13.7476C14.297 14.0323 15.1127 14.0261 15.8476 13.7302C16.5173 13.4607 17.1057 12.8944 17.4181 12.2189C17.6255 11.7702 17.8473 10.9173 17.9533 10.1602C18.0153 9.71796 18.0156 8.32971 17.954 7.89658C17.7021 6.12879 17.0788 4.66498 16.0193 3.35312C14.5737 1.56313 12.4104 0.355206 10.1522 0.0770488C9.6839 0.0193528 8.94354 -0.0143304 8.5895 0.00591575ZM9.48576 6.48087C9.85718 6.55207 10.1233 6.65866 10.4323 6.85993C10.7987 7.09865 11.1457 7.48253 11.3286 7.85192C11.5519 8.30244 11.6056 8.54282 11.602 9.07367C11.5994 9.45955 11.5848 9.56922 11.5034 9.81615C11.3666 10.2312 11.1755 10.5351 10.8428 10.8666C10.5101 11.1981 10.2053 11.3886 9.78879 11.5249C9.54101 11.606 9.43096 11.6206 9.04377 11.6232C8.51111 11.6268 8.2699 11.5732 7.81784 11.3508C7.29132 11.0917 6.77515 10.5269 6.5712 9.98663C6.29205 9.2472 6.35725 8.39787 6.74408 7.73359C6.91303 7.44352 7.39129 6.96051 7.67215 6.79637C8.22498 6.47326 8.86522 6.36189 9.48576 6.48087Z" fill="white"/>
</svg>
