<svg width="23" height="23" viewBox="0 0 23 23" fill="none" xmlns="http://www.w3.org/2000/svg">
<path d="M16.4798 16.3144C16.7074 16.5345 16.7149 16.8993 16.4781 17.1094C15.5167 17.9625 14.3495 18.5565 13.0869 18.8298C11.6371 19.1437 10.1269 19.0206 8.74705 18.4761C7.36724 17.9316 6.17989 16.9901 5.33513 15.7708C4.49037 14.5515 4.02615 13.1091 4.00117 11.6259C3.9762 10.1428 4.39159 8.6855 5.19482 7.43844C5.99805 6.19137 7.15304 5.21049 8.51373 4.61984C9.87442 4.02919 11.3797 3.85529 12.8392 4.12015C14.1103 4.35079 15.2969 4.90515 16.2864 5.72545C16.5302 5.92749 16.535 6.2923 16.3149 6.5199C16.0949 6.7475 15.7334 6.75131 15.4869 6.55265C14.6625 5.8882 13.6824 5.43834 12.6345 5.2482C11.3981 5.02383 10.1229 5.17114 8.97024 5.6715C7.81754 6.17186 6.83911 7.0028 6.15866 8.05924C5.47822 9.11568 5.12633 10.3502 5.14748 11.6066C5.16864 12.863 5.5619 14.085 6.27752 15.1179C6.99315 16.1508 7.99901 16.9484 9.16789 17.4096C10.3368 17.8709 11.6162 17.9752 12.8444 17.7093C13.8852 17.484 14.8496 17.0014 15.6512 16.3096C15.8909 16.1027 16.2522 16.0944 16.4798 16.3144Z" fill="#515151"/>
<path d="M18.0002 11.5L14.0002 14.5C11.5281 16.3541 8.00024 14.5902 8.00024 11.5C8.00024 8.40983 11.5281 6.6459 14.0002 8.5L18.0002 11.5Z" fill="white"/>
</svg>
