<svg width="19" height="18" viewBox="0 0 19 18" fill="none" xmlns="http://www.w3.org/2000/svg">
<path d="M8.58768 1.03272C8.94106 0.245348 10.0589 0.245348 10.4123 1.03272L12.1783 4.96741C12.3237 5.29141 12.63 5.51397 12.9831 5.55215L17.2709 6.0158C18.129 6.10858 18.4744 7.17173 17.8348 7.75114L14.6384 10.6466C14.3752 10.885 14.2582 11.2451 14.331 11.5927L15.215 15.8139C15.3919 16.6586 14.4876 17.3157 13.7389 16.8864L9.99741 14.7412C9.68933 14.5646 9.31067 14.5646 9.00259 14.7412L5.26115 16.8864C4.51244 17.3157 3.60806 16.6586 3.78497 15.8139L4.66903 11.5927C4.74183 11.2451 4.62482 10.885 4.36162 10.6466L1.16522 7.75114C0.525582 7.17173 0.871023 6.10858 1.72906 6.0158L6.01689 5.55215C6.36996 5.51397 6.6763 5.29141 6.82171 4.96741L8.58768 1.03272Z" fill="#494A50"/>
</svg>
