<svg width="43" height="43" viewBox="0 0 43 43" fill="none" xmlns="http://www.w3.org/2000/svg">
<path fill-rule="evenodd" clip-rule="evenodd" d="M18.8235 0.0657845C18.4589 0.215126 18.161 0.476242 18.0227 0.767698C17.928 0.96738 17.8319 1.6898 17.7122 3.10152C17.6025 4.39669 17.4977 5.21046 17.4261 5.32148C17.351 5.43804 16.9655 5.6173 16.2767 5.85623C15.7067 6.0539 14.7802 6.4383 14.2178 6.71043C13.6554 6.98255 13.1217 7.20518 13.0318 7.20518C12.8366 7.20518 12.7674 7.15257 11.0083 5.66621C10.2518 5.027 9.54043 4.46888 9.42742 4.42593C9.10739 4.30424 8.49571 4.33382 8.19945 4.48526C7.8264 4.67612 4.81264 7.67144 4.55554 8.10694C4.33078 8.48765 4.28087 9.00803 4.43136 9.40118C4.47782 9.52278 5.03875 10.2413 5.67781 10.998C7.16381 12.7575 7.21641 12.8267 7.21641 13.022C7.21641 13.1119 6.99383 13.6457 6.72177 14.2083C6.44971 14.7708 6.0654 15.6976 5.86778 16.2677C5.62891 16.9567 5.44969 17.3422 5.33316 17.4173C5.22225 17.4888 4.41438 17.5933 3.13373 17.7019C2.02045 17.7962 1.03741 17.899 0.949184 17.9304C0.603017 18.0532 0.251221 18.3965 0.120484 18.739C0.00243405 19.0482 -0.0131939 19.4501 0.00797945 21.6252L0.0325976 24.1522L0.256178 24.4899C0.611755 25.0271 0.829034 25.0871 3.11374 25.2809C4.40859 25.3906 5.22216 25.4955 5.33316 25.5671C5.44961 25.6422 5.62925 26.0282 5.8682 26.7167C6.06607 27.2868 6.45038 28.2175 6.72219 28.785C6.994 29.3523 7.21641 29.8898 7.21641 29.9793C7.21641 30.1535 6.963 30.4812 5.47095 32.2363C4.94666 32.853 4.47916 33.4581 4.4322 33.581C4.28087 33.9762 4.33036 34.496 4.55554 34.8775C4.81844 35.3229 7.83035 38.3103 8.21491 38.5071C8.53327 38.67 9.21838 38.6953 9.48262 38.5538C9.57757 38.503 10.2691 37.9427 11.0195 37.3087C12.7664 35.8327 12.8367 35.7792 13.0318 35.7792C13.1217 35.7792 13.6554 36.0023 14.2178 36.275C14.7802 36.5476 15.6563 36.9115 16.1647 37.0835C17.2552 37.4527 17.3531 37.4994 17.4618 37.7024C17.5072 37.7875 17.6233 38.7781 17.7196 39.904C17.9213 42.2603 17.9879 42.4708 18.6419 42.8152C19.0172 43.0128 19.0277 43.0134 21.5889 42.9891L24.1593 42.9648L24.497 42.7411C25.034 42.3855 25.0941 42.1681 25.2878 39.8829C25.3975 38.5877 25.5023 37.7739 25.5739 37.6629C25.649 37.5464 26.0349 37.3668 26.7233 37.1277C27.2933 36.9298 28.2237 36.5454 28.791 36.2736C29.3582 36.0017 29.8897 35.7792 29.9719 35.7792C30.1601 35.7792 30.3309 35.9079 31.9239 37.2507C32.6373 37.852 33.2861 38.3947 33.3656 38.4566C33.6123 38.6486 34.1149 38.7198 34.5233 38.6205C34.8602 38.5386 35.099 38.3309 36.7168 36.7127C39.2504 34.1785 39.2393 34.2608 37.3485 32.0188C35.8291 30.2173 35.7836 30.1574 35.7836 29.9624C35.7836 29.8725 36.0062 29.3387 36.2782 28.7761C36.5503 28.2136 36.9346 27.2868 37.1322 26.7167C37.3711 26.0277 37.5503 25.6422 37.6668 25.5671C37.7778 25.4956 38.5856 25.3911 39.8663 25.2825C40.9795 25.1882 41.9626 25.0854 42.0508 25.054C42.397 24.9312 42.7488 24.5879 42.8795 24.2454C42.9976 23.9362 43.0132 23.5343 42.992 21.3592L42.9674 18.8322L42.7438 18.4945C42.3882 17.9573 42.171 17.8972 39.8863 17.7035C38.5914 17.5938 37.7778 17.4889 37.6668 17.4173C37.5504 17.3422 37.3708 16.9562 37.1318 16.2677C36.9339 15.6976 36.5496 14.7669 36.2778 14.1994C36.006 13.6321 35.7836 13.0946 35.7836 13.0051C35.7836 12.8301 36 12.5503 37.544 10.7293C38.8015 9.2462 38.9223 8.86331 38.3981 8.02164C38.1485 7.62068 35.1147 4.64267 34.787 4.47678C34.4716 4.3171 33.9237 4.29088 33.5881 4.41946C33.4665 4.46594 32.7482 5.027 31.9917 5.66621C30.2326 7.15257 30.1634 7.20518 29.9682 7.20518C29.8783 7.20518 29.3446 6.98255 28.7822 6.71043C28.2198 6.4383 27.2933 6.0539 26.7233 5.85623C26.0345 5.6173 25.649 5.43804 25.5739 5.32148C25.5023 5.21046 25.3975 4.39669 25.2878 3.10152C25.0941 0.816274 25.034 0.598943 24.497 0.24328L24.1593 0.0196459L21.5903 0.00216526C20.0897 -0.00800373 18.9391 0.0183852 18.8235 0.0657845ZM23.7201 1.67946C23.7438 1.82973 23.8226 2.69006 23.8952 3.5914C24.0468 5.47334 24.0958 5.70706 24.4388 6.18071C24.7799 6.65168 24.9501 6.74883 26.2373 7.20761C26.851 7.42637 27.8025 7.82733 28.3518 8.09862C29.2617 8.54799 29.3994 8.59186 29.8994 8.59186C30.2013 8.59186 30.5806 8.53639 30.7423 8.46849C31.0006 8.36016 32.067 7.50756 33.6241 6.16449L34.1112 5.7442L35.6618 7.29351C36.5147 8.14552 37.2028 8.86878 37.1912 8.90063C37.1795 8.93239 36.6217 9.60758 35.9516 10.4008C35.2816 11.1942 34.6591 11.9815 34.5684 12.1505C34.4506 12.3699 34.4026 12.6265 34.4004 13.0482C34.3974 13.6022 34.4279 13.7007 34.8939 14.645C35.167 15.1985 35.5547 16.1167 35.7553 16.6854C36.1872 17.9099 36.2805 18.1001 36.5953 18.3991C37.0626 18.8431 37.4639 18.9453 39.3125 19.0916C40.2598 19.1664 41.1578 19.2474 41.308 19.2712L41.5811 19.3148V21.4922V23.6696L41.308 23.7128C41.1578 23.7365 40.2976 23.8154 39.3965 23.888C37.515 24.0396 37.2814 24.0887 36.8078 24.4317C36.337 24.7729 36.2398 24.9431 35.7812 26.2306C35.5625 26.8445 35.1616 27.7962 34.8904 28.3457C34.4411 29.2558 34.3972 29.3935 34.3972 29.8936C34.3972 30.1956 34.4527 30.575 34.5206 30.7367C34.6289 30.9951 35.4813 32.0617 36.824 33.6192L37.2442 34.1065L35.6953 35.6574C34.8435 36.5105 34.1204 37.1988 34.0886 37.1872C34.0568 37.1755 33.3818 36.6175 32.5887 35.9473C31.7955 35.2771 31.0084 34.6545 30.8395 34.5637C30.6204 34.4461 30.3636 34.3979 29.9441 34.3956C29.3913 34.3927 29.293 34.4235 28.3057 34.9077C27.7281 35.1911 26.8106 35.578 26.2669 35.7677C25.0934 36.1769 24.8911 36.2764 24.5923 36.5911C24.1485 37.0586 24.0463 37.46 23.9001 39.309C23.8252 40.2565 23.7443 41.1547 23.7204 41.3049L23.6769 41.5781H21.5H19.3231L19.2799 41.3049C19.2562 41.1548 19.1774 40.2943 19.1048 39.393C18.9532 37.5111 18.9042 37.2773 18.5612 36.8037C18.2201 36.3327 18.0499 36.2356 16.7627 35.7768C16.149 35.558 15.1975 35.1571 14.6482 34.8858C13.7129 34.4239 13.6118 34.3927 13.0586 34.3947C12.2105 34.3979 12.2791 34.3536 9.62689 36.6085L8.88649 37.2379L7.33706 35.6898C6.48483 34.8384 5.7972 34.1156 5.8088 34.0838C5.82048 34.052 6.37829 33.3768 7.04836 32.5835C7.71843 31.7902 8.34086 31.0029 8.4316 30.8339C8.5494 30.6145 8.59738 30.3579 8.59965 29.9362C8.60259 29.3827 8.57192 29.2832 8.10963 28.3462C7.83841 27.7965 7.43755 26.8445 7.21884 26.2306C6.76017 24.9431 6.66304 24.7729 6.19219 24.4317C5.71864 24.0887 5.48498 24.0396 3.6035 23.888C2.70237 23.8154 1.84225 23.7365 1.69202 23.7128L1.41895 23.6696V21.4922V19.3148L1.69202 19.2716C1.84225 19.2479 2.70237 19.169 3.6035 19.0964C5.48498 18.9448 5.71864 18.8957 6.19219 18.5527C6.66304 18.2115 6.76017 18.0413 7.21884 16.7538C7.43755 16.1399 7.83841 15.1882 8.10963 14.6387C8.5589 13.7286 8.60275 13.5909 8.60275 13.0908C8.60275 12.7888 8.5473 12.4094 8.47941 12.2477C8.37111 11.9893 7.51871 10.9227 6.17597 9.36521L5.75578 8.87794L7.30471 7.32695C8.15652 6.47393 8.8796 5.78564 8.91145 5.79723C8.94321 5.80892 9.61823 6.36687 10.4113 7.0371C11.2045 7.70732 11.9916 8.3299 12.1605 8.42067C12.3796 8.53832 12.6364 8.58648 13.0559 8.58875C13.6087 8.59169 13.707 8.56093 14.6943 8.07669C15.2719 7.7933 16.1894 7.40637 16.7331 7.21669C17.9066 6.80749 18.1089 6.70799 18.4077 6.39325C18.8515 5.92582 18.9537 5.52444 19.0999 3.67544C19.1748 2.72788 19.2557 1.82973 19.2796 1.67946L19.3231 1.40633H21.5H23.6769L23.7201 1.67946ZM20.125 10.8303C17.7084 11.1407 15.5001 12.2658 13.7617 14.0723C12.3024 15.5887 11.3931 17.3312 10.9422 19.4752C10.7348 20.4613 10.7348 22.5231 10.9422 23.5092C11.4213 25.7873 12.4343 27.6399 14.0583 29.2082C15.5927 30.6899 17.3259 31.5986 19.4835 32.0525C20.4694 32.26 22.5306 32.26 23.5165 32.0525C25.6741 31.5986 27.4073 30.6899 28.9417 29.2082C32.0563 26.2005 33.065 21.7276 31.5416 17.6793C30.5224 14.9708 28.2613 12.6469 25.5833 11.5557C23.8861 10.8641 21.9082 10.6012 20.125 10.8303ZM22.8698 12.2888C24.9539 12.603 26.767 13.5479 28.2316 15.083C31.2552 18.252 31.6554 22.9633 29.2189 26.7028C28.7612 27.4051 27.4115 28.7551 26.7093 29.2129C22.82 31.7483 17.8755 31.1947 14.7356 27.8721C11.3308 24.2693 11.3451 18.6709 14.7684 15.083C16.8927 12.8565 19.856 11.8344 22.8698 12.2888Z" fill="#16C198"/>
</svg>
