<svg width="44" height="44" viewBox="0 0 44 44" fill="none" xmlns="http://www.w3.org/2000/svg">
<path fill-rule="evenodd" clip-rule="evenodd" d="M21.7608 0.0248279C20.9889 0.298167 20.9863 0.308749 20.9863 3.20259V5.66755L21.2738 5.955C21.432 6.11313 21.666 6.26869 21.7939 6.30078C22.1094 6.38002 22.6046 6.17869 22.8273 5.88075C23.0003 5.64922 23.0097 5.52679 23.0309 3.21369C23.0548 0.620288 23.042 0.526422 22.6214 0.217808C22.3878 0.0464231 21.9667 -0.0480452 21.7608 0.0248279ZM10.8105 3.15622C10.2847 3.68191 10.3328 3.85148 11.6525 6.12354C12.2571 7.16459 12.8301 8.10351 12.9256 8.21011C13.3212 8.65104 14.1201 8.60355 14.4808 8.11762C14.8585 7.60888 14.7725 7.35645 13.4544 5.10418C12.1819 2.92994 12.0792 2.81113 11.4713 2.81113C11.2176 2.81113 11.0879 2.87892 10.8105 3.15622ZM31.8914 2.99525C31.7662 3.10692 31.1504 4.08877 30.5228 5.17714C29.2702 7.34991 29.1834 7.61413 29.5572 8.11762C29.9179 8.60355 30.7168 8.65104 31.1124 8.21011C31.2079 8.10351 31.7809 7.16459 32.3855 6.12354C33.6757 3.90225 33.7371 3.7004 33.2756 3.197C33.0279 2.92676 32.9113 2.86834 32.5498 2.83367C32.1848 2.79857 32.0844 2.82317 31.8914 2.99525ZM21.0294 8.67032C17.8527 8.88025 14.9299 10.2309 12.5899 12.5704C9.76312 15.3966 8.44 18.9286 8.69628 22.9646C9.0282 28.1939 12.5995 32.8469 17.6231 34.5951C19.251 35.1616 20.0271 35.2831 22.019 35.2831C23.5175 35.2831 23.9147 35.2545 24.6565 35.0931C30.0575 33.9181 34.0606 29.8594 35.1573 24.4463C35.3959 23.2687 35.3744 20.5464 35.1171 19.3605C34.2153 15.2028 31.6567 11.8841 27.9089 10.0108C26.4167 9.26492 24.6973 8.78621 23.1981 8.69922C22.7625 8.67402 22.3094 8.64304 22.1911 8.63048C22.0728 8.61801 21.55 8.6359 21.0294 8.67032ZM3.36182 10.6077C2.87259 10.8567 2.68499 11.4901 2.94909 12.0008C3.10692 12.3059 7.01216 14.6004 7.46774 14.6557C8.12943 14.7361 8.71099 14.0366 8.51805 13.3926C8.46685 13.2219 8.33725 13.0026 8.22994 12.9053C7.84578 12.5569 4.24992 10.5376 3.94717 10.5002C3.7668 10.478 3.53204 10.5211 3.36182 10.6077ZM39.6244 10.6478C38.5016 11.2494 35.9663 12.7588 35.7707 12.942C35.3479 13.338 35.3789 14.0014 35.8405 14.4349C36.0102 14.5944 36.1513 14.6399 36.4619 14.6354C36.8842 14.6293 36.7584 14.6949 40.009 12.7876C41.0621 12.1697 41.2096 12.0046 41.2096 11.4436C41.2096 11.2015 41.1388 11.0657 40.8755 10.8024C40.4814 10.4084 40.148 10.3672 39.6244 10.6478ZM23.9315 10.8603C28.4203 11.599 32.0613 15.1225 33.0842 19.7173C33.2944 20.6612 33.3372 22.7291 33.1681 23.7609C32.5799 27.3485 30.2738 30.4793 27.024 32.1023C26.1328 32.5474 24.7904 32.9788 23.783 33.1439C22.751 33.313 20.6825 33.2701 19.7385 33.06C15.7144 32.1646 12.4817 29.2672 11.2602 25.4611C10.8868 24.2979 10.7396 23.3185 10.7396 21.9973C10.7396 18.9599 11.7998 16.3342 13.9036 14.1614C16.5481 11.4299 20.1627 10.24 23.9315 10.8603ZM0.445025 21.1332C0.134276 21.3226 -0.0696776 21.8396 0.0221445 22.2053C0.0530388 22.3282 0.190385 22.5543 0.327472 22.7078L0.576605 22.9867L3.00916 23.0121C4.73588 23.0302 5.5128 23.0081 5.68697 22.936C6.08189 22.7724 6.27069 22.4623 6.27069 21.9771C6.27069 21.606 6.23231 21.5116 5.9781 21.2574L5.68551 20.9649L3.20279 20.9652C0.893723 20.9655 0.700785 20.9773 0.445025 21.1332ZM13.3273 21.0254C13.0638 21.1213 12.7254 21.5201 12.6737 21.7957C12.5953 22.2133 12.7919 23.7179 13.036 24.5691C13.3081 25.5179 13.9741 26.8731 14.5234 27.5959C15.464 28.8335 17.2546 30.2568 17.8711 30.2568C18.4747 30.2568 18.921 29.8096 18.921 29.2048C18.921 28.8198 18.752 28.6027 18.12 28.1758C17.4163 27.7005 16.5791 26.8951 16.1245 26.2561C15.3226 25.1291 14.9349 24.0659 14.7514 22.4901C14.6862 21.931 14.5812 21.4112 14.518 21.3349C14.2856 21.0548 13.6796 20.8973 13.3273 21.0254ZM38.2183 21.0789C37.5345 21.4586 37.5782 22.5542 38.2919 22.9209C38.4413 22.9977 39.1562 23.0273 40.8653 23.0273C42.5745 23.0273 43.2894 22.9977 43.4388 22.9209C44.1478 22.5566 44.1967 21.437 43.5189 21.0866C43.1972 20.9203 38.5163 20.9135 38.2183 21.0789ZM7.04185 29.4623C6.87808 29.5458 5.93516 30.0782 4.94663 30.6453C3.04496 31.7363 2.82939 31.9231 2.82879 32.4806C2.8281 33.0832 3.4076 33.5963 3.98005 33.4999C4.26145 33.4526 7.89552 31.3925 8.22598 31.093C8.70316 30.6606 8.63423 29.8755 8.08665 29.5072C7.7358 29.2711 7.44175 29.2585 7.04185 29.4623ZM35.9765 29.4848C35.4102 29.8299 35.305 30.6176 35.7675 31.0483C36.1198 31.3762 39.7482 33.4508 40.058 33.5013C40.6316 33.5949 41.2099 33.0822 41.2092 32.4806C41.2086 31.9502 40.9709 31.7225 39.6084 30.9467C36.4374 29.1412 36.4992 29.1661 35.9765 29.4848ZM13.1968 35.5511C13.054 35.6216 12.8945 35.7475 12.8424 35.8309C12.133 36.9666 10.5462 39.8281 10.5127 40.0322C10.4181 40.6081 10.9175 41.1835 11.5118 41.1835C12.1329 41.1835 12.1878 41.1127 13.8773 38.1338C14.3321 37.3318 14.704 36.5769 14.7039 36.4561C14.7034 36.1293 14.4201 35.7253 14.0775 35.5627C13.7077 35.3873 13.5333 35.385 13.1968 35.5511ZM29.9594 35.5425C29.6429 35.6847 29.3346 36.133 29.3341 36.4515C29.3338 36.6668 29.6046 37.185 30.9704 39.5827C31.7464 40.9449 31.9742 41.1826 32.5046 41.1832C33.1066 41.1839 33.6195 40.6054 33.5253 40.0322C33.4716 39.7055 31.3894 36.0736 31.064 35.7391C30.7821 35.4494 30.3413 35.371 29.9594 35.5425ZM21.7608 37.7089C20.9894 37.9821 20.9863 37.9946 20.9863 40.8715V43.3213L21.2078 43.5844C21.3296 43.7291 21.5775 43.892 21.7588 43.9462C22.039 44.0301 22.1378 44.0207 22.4193 43.8833C23.0213 43.5894 23.0516 43.4413 23.0503 40.7963C23.0491 38.3236 23.0311 38.2025 22.6214 37.9019C22.3878 37.7305 21.9667 37.636 21.7608 37.7089Z" fill="#16C198"/>
</svg>
