<svg width="18" height="18" viewBox="0 0 18 18" fill="none" xmlns="http://www.w3.org/2000/svg">
<path fill-rule="evenodd" clip-rule="evenodd" d="M8.32993 0.0169412C6.99703 0.144715 6.00567 0.426893 4.88329 0.99797C3.55374 1.67441 2.36067 2.74409 1.49075 4.03959C0.918043 4.89246 0.393838 6.14265 0.192667 7.13543C0.041331 7.88206 0.0134765 8.17197 0.0134765 8.99997C0.0134765 9.8286 0.0414717 10.1193 0.192913 10.8645C0.369781 11.7348 0.811795 12.863 1.27481 13.6258L1.43159 13.8841L0.726192 15.4368C0.296066 16.3836 0.0142854 17.0473 0.00412138 17.1376C-0.035937 17.4932 0.221013 17.8802 0.557483 17.9709C0.87088 18.0554 1.28191 17.9607 3.78927 17.2263L4.75271 16.9441L5.16089 17.1377C6.28294 17.6699 7.44056 17.9487 8.7168 17.9943C10.7596 18.0672 12.7326 17.44 14.4143 16.1831C14.8801 15.8349 15.7374 14.9958 16.0741 14.5584C17.8187 12.2924 18.4068 9.51434 17.7204 6.78226C17.513 5.95687 17.0785 4.93492 16.644 4.25067C15.95 3.15788 14.9971 2.18343 13.9219 1.46716C13.4667 1.16384 12.4825 0.673646 11.9876 0.503656C11.2708 0.257467 10.5333 0.0984531 9.78948 0.0297115C9.43117 -0.00339287 8.6166 -0.0105344 8.32993 0.0169412ZM9.93715 1.63026C13.1939 2.04806 15.7685 4.53873 16.337 7.82144C16.4248 8.32842 16.4254 9.64813 16.3381 10.1664C15.8028 13.3448 13.3588 15.7989 10.1939 16.3358C9.7332 16.414 8.68592 16.443 8.22442 16.3903C7.30973 16.2859 6.47406 16.0346 5.61264 15.6049C5.15076 15.3745 5.02939 15.3281 4.88512 15.327C4.7716 15.3261 4.28597 15.4427 3.47513 15.6654C2.79488 15.8524 2.23153 15.9985 2.22326 15.9902C2.21496 15.9819 2.40611 15.539 2.64801 15.0061C2.88987 14.4731 3.09762 13.9756 3.10961 13.9005C3.14292 13.6922 3.07652 13.5123 2.8253 13.1307C1.9954 11.8696 1.57734 10.4859 1.57734 8.99997C1.57734 5.23163 4.36813 2.09024 8.1365 1.61682C8.54383 1.56567 9.48853 1.5727 9.93715 1.63026ZM5.88563 4.91498C5.42364 5.03645 4.87858 5.62523 4.69886 6.19701C4.63172 6.41058 4.62012 6.52249 4.62332 6.92435C4.62655 7.33117 4.64069 7.44466 4.72183 7.7159C5.24656 9.47019 7.15628 11.4904 9.26193 12.5187C9.84026 12.8012 10.3051 12.9716 10.7421 13.0614C11.9662 13.313 12.877 12.9551 13.327 12.0457C13.4604 11.7761 13.4821 11.7015 13.4808 11.518C13.4788 11.2316 13.3773 11.0176 13.1231 10.7639C12.8736 10.5148 12.5288 10.31 12.1107 10.1625C11.7178 10.024 11.2848 9.9817 11.1218 10.066C10.9796 10.1396 10.7899 10.3541 10.5935 10.6635C10.2523 11.2008 10.1862 11.2169 9.56087 10.9147C8.57397 10.4377 7.78357 9.75215 7.16725 8.8386C6.91164 8.45968 6.87471 8.36057 6.93559 8.21722C6.96228 8.15435 7.07419 7.99358 7.18428 7.86003C7.55103 7.41501 7.6189 7.197 7.53699 6.72727C7.40648 5.97868 6.94973 5.23635 6.46854 4.99079C6.3032 4.90643 6.04565 4.87294 5.88563 4.91498Z" fill="white"/>
</svg>
