<svg width="168" height="51" viewBox="0 0 168 51" fill="none" xmlns="http://www.w3.org/2000/svg">
<path fill-rule="evenodd" clip-rule="evenodd" d="M24.1089 39.4401C25.8266 38.6801 27.5847 39.5201 28.3526 41.1401C29.3833 43.3601 27.9485 47.1001 25.7256 50.4201H31.4647C33.0612 46.9201 33.7685 44.7201 33.7685 42.4401C33.7685 37.1201 29.1812 34.1201 25.382 34.1201C19.1376 34.1201 15.2576 40.5201 17.7433 45.9601L22.371 43.7001C21.8456 42.6201 22.0072 40.3601 24.1089 39.4401Z" fill="#A0A1A1"/>
<path fill-rule="evenodd" clip-rule="evenodd" d="M42.7206 7.44016C49.8541 7.44016 58.281 14.0602 58.18 22.8602L63.0906 34.1202H58.5235C58.5235 37.7202 58.5235 41.3002 58.5235 44.9002H49.7531L47.4898 50.4002H35.9508C39.5681 43.5802 38.3152 38.4402 35.5264 34.7202C33.2429 31.7002 32.1719 28.5402 32.1719 25.9202C32.1719 19.7202 37.325 15.3002 42.0537 15.2802C46.1156 15.2602 49.2479 18.1602 49.2479 21.6002C49.2479 24.2802 47.8535 27.2002 45.1254 28.0802C43.8725 28.4802 42.8216 27.9002 42.3366 27.0602C41.5889 25.7402 42.276 24.4602 43.2662 23.8402C43.8725 23.4602 44.4181 22.8002 44.3777 21.8402C44.3373 20.4002 42.9631 19.3202 41.4879 19.6602C39.1437 20.2002 36.9208 22.7402 36.9208 25.8602C36.9208 29.7202 40.8008 32.9202 44.4181 32.9202C49.5308 32.9202 54.2394 27.5402 53.7948 21.8602C53.3704 16.4202 48.7831 11.8202 42.7408 11.8202C38.5779 11.8202 36.4762 12.5402 31.3837 16.6402C26.6146 20.6202 20.6127 22.0002 16.0254 17.6202C11.9029 13.7002 12.9739 6.04017 18.1068 3.56017C22.6335 1.38017 26.7156 2.52016 29.6054 5.84016L26.0487 8.36017C24.8968 6.88017 22.1283 6.04016 19.8852 7.54016C17.541 9.10016 17.3187 12.0002 18.5514 13.8402C20.7137 17.0802 24.6341 16.2802 27.4835 14.1802C33.2631 9.88017 35.5871 7.44016 42.7206 7.44016Z" fill="#A0A1A1"/>
<path fill-rule="evenodd" clip-rule="evenodd" d="M52.9864 7.7L55.5124 4.14C52.6024 2.12 49.1872 0.739995 45.4285 0.219995L44.8222 4.54C47.8737 4.94 50.6422 6.06 52.9864 7.7ZM41.3464 4.36L41.1241 0C37.5674 0.18 34.0108 1.16 30.7168 3.04L32.9195 6.81999C35.587 5.29999 38.4768 4.5 41.3464 4.36Z" fill="#A0A1A1"/>
<path fill-rule="evenodd" clip-rule="evenodd" d="M22.4315 13.0002C23.3409 13.0002 24.0886 12.2602 24.0886 11.3602C24.0886 10.4602 23.3409 9.72021 22.4315 9.72021C21.5221 9.72021 20.7744 10.4602 20.7744 11.3602C20.7744 12.2602 21.5019 13.0002 22.4315 13.0002Z" fill="#A0A1A1"/>
<path fill-rule="evenodd" clip-rule="evenodd" d="M6.70933 16.9801C8.3462 15.3601 10.9733 15.3601 12.6102 16.9801C14.247 18.6001 14.247 21.2001 12.6102 22.8201C10.9733 24.4401 8.3462 24.4401 6.70933 22.8201C5.09266 21.2001 5.09266 18.5801 6.70933 16.9801ZM7.73995 19.9001L9.65974 21.8001L11.5795 19.9001L9.65974 18.0001L7.73995 19.9001Z" fill="#A0A1A1"/>
<path fill-rule="evenodd" clip-rule="evenodd" d="M7.61876 7.45996C9.45772 7.45996 10.9531 8.93996 10.9329 10.78C10.9329 12.6 9.4375 14.08 7.59854 14.06C5.75958 14.06 4.26417 12.58 4.28438 10.76C4.28438 8.91996 5.7798 7.45996 7.61876 7.45996ZM6.5275 9.67996V11.82H8.6898V9.67996H6.5275Z" fill="#A0A1A1"/>
<path d="M11.0441 2.6082L9.59473 4.19629L11.1994 5.63073L12.6487 4.04265L11.0441 2.6082Z" fill="#A0A1A1"/>
<path fill-rule="evenodd" clip-rule="evenodd" d="M6.04253 24.8798C4.0217 27.2798 2.00087 29.6798 0.000244141 32.0798L2.46566 34.1198L6.46691 29.3798L11.2563 33.3399L15.2575 28.5998L20.0469 32.5598L24.0482 27.8198L28.8375 31.7598L30.8988 29.3198C28.4738 27.3198 26.0488 25.3198 23.6238 23.3398C22.29 24.9198 20.9563 26.4998 19.6225 28.0798C18.0261 26.7598 16.4296 25.4398 14.8332 24.1198C13.4994 25.6998 12.1657 27.2798 10.8319 28.8598C9.23545 27.5198 7.63899 26.1998 6.04253 24.8798Z" fill="#A0A1A1"/>
<path fill-rule="evenodd" clip-rule="evenodd" d="M6.28491 35.2402L14.7118 35.2602V35.2802L7.63887 39.3202L9.03325 41.7002L10.367 44.0002L12.7718 42.6202L11.4178 40.3202L14.7118 38.4602V45.2402H6.28491V35.2402Z" fill="#A0A1A1"/>
<path fill-rule="evenodd" clip-rule="evenodd" d="M80.5709 17.28H83.7638V29.54H80.5709V28.26C79.803 29.02 78.3075 29.82 76.6707 29.82C73.1948 29.82 70.5273 26.8 70.5273 23.4C70.5273 20 73.114 16.98 76.6707 16.98C78.4086 16.98 79.803 17.8 80.5709 18.62V17.28ZM164.052 17.28H167.244V29.54H164.052V28.26C163.284 29.02 161.788 29.82 160.151 29.82C156.675 29.82 154.008 26.8 154.008 23.4C154.008 20 156.595 16.98 160.151 16.98C161.889 16.98 163.284 17.8 164.052 18.62V17.28ZM160.555 26.86C162.374 26.86 164.031 25.42 164.031 23.42C164.031 21.64 162.596 19.98 160.555 19.98C158.716 19.98 157.08 21.42 157.08 23.42C157.08 25.22 158.514 26.86 160.555 26.86ZM77.0748 26.86C78.8936 26.86 80.5507 25.42 80.5507 23.42C80.5507 21.64 79.1159 19.98 77.0748 19.98C75.2359 19.98 73.599 21.42 73.599 23.42C73.599 25.22 75.0338 26.86 77.0748 26.86ZM147.481 29.78C143.843 29.78 141.014 26.84 141.014 23.4C141.014 19.92 143.803 16.98 147.481 16.98C149.764 16.98 151.886 18.18 153.038 20.12L150.35 21.68C149.784 20.74 148.713 20.04 147.521 20.04C145.541 20.04 144.146 21.62 144.146 23.38C144.146 25.28 145.581 26.72 147.521 26.72C148.713 26.72 149.805 26 150.35 25.02L153.038 26.62C151.927 28.54 149.805 29.78 147.481 29.78Z" fill="#A0A1A1"/>
<path fill-rule="evenodd" clip-rule="evenodd" d="M77.0748 36.7998C76.4483 36.7398 76.0037 36.8598 75.7006 37.1198C75.3975 37.3798 75.256 37.7998 75.256 38.4198V38.6798H77.0748V39.4798H75.256V44.9398H74.4275V39.4598H73.3564V38.6598H74.4275V38.3998C74.4275 37.5798 74.6498 36.9598 75.1146 36.5398C75.5794 36.1198 76.226 35.9398 77.0748 35.9998V36.7998ZM78.7925 39.6998C79.1764 38.9398 79.8433 38.5598 80.7931 38.5598V39.3598C80.2273 39.3598 79.7423 39.5198 79.3583 39.8598C78.9744 40.1998 78.7925 40.7198 78.7925 41.4398V44.9198H77.9639V38.6598H78.7925V39.6998ZM84.4912 38.5198C85.4208 38.5198 86.1887 38.8398 86.7748 39.4998C87.3608 40.1598 87.6437 40.9398 87.6437 41.8198C87.6437 41.9198 87.6437 42.0398 87.6235 42.1998H82.0662C82.1471 42.8398 82.43 43.3398 82.8746 43.7198C83.3394 44.0998 83.9052 44.2798 84.5721 44.2798C85.0571 44.2798 85.4612 44.1798 85.825 43.9798C86.1685 43.7798 86.4312 43.5198 86.6131 43.1998L87.3406 43.6198C87.0577 44.0598 86.6737 44.4198 86.2089 44.6798C85.7239 44.9398 85.1783 45.0598 84.5519 45.0598C83.5616 45.0598 82.7533 44.7598 82.1269 44.1398C81.5004 43.5198 81.1973 42.7398 81.1973 41.7798C81.1973 40.8398 81.5004 40.0598 82.1269 39.4398C82.7331 38.8198 83.5212 38.5198 84.4912 38.5198ZM84.4912 39.3198C83.8244 39.3198 83.2787 39.5198 82.8341 39.8998C82.3896 40.2798 82.1269 40.7998 82.046 41.4198H86.7748C86.6939 40.7598 86.4312 40.2398 86.0069 39.8798C85.5623 39.4998 85.0571 39.3198 84.4912 39.3198ZM91.8875 38.5198C92.8171 38.5198 93.585 38.8398 94.171 39.4998C94.7571 40.1598 95.04 40.9398 95.04 41.8198C95.04 41.9198 95.04 42.0398 95.0198 42.1998H89.4625C89.5433 42.8398 89.8262 43.3398 90.2708 43.7198C90.7356 44.0998 91.3014 44.2798 91.9683 44.2798C92.4533 44.2798 92.8575 44.1798 93.2212 43.9798C93.5648 43.7798 93.8275 43.5198 94.0094 43.1998L94.7369 43.6198C94.4539 44.0598 94.07 44.4198 93.6052 44.6798C93.1202 44.9398 92.5746 45.0598 91.9481 45.0598C90.9579 45.0598 90.1496 44.7598 89.5231 44.1398C88.8967 43.5198 88.5935 42.7398 88.5935 41.7798C88.5935 40.8398 88.8967 40.0598 89.5231 39.4398C90.1294 38.8198 90.9175 38.5198 91.8875 38.5198ZM91.8875 39.3198C91.2206 39.3198 90.675 39.5198 90.2304 39.8998C89.7858 40.2798 89.5231 40.7998 89.4423 41.4198H94.171C94.0902 40.7598 93.8275 40.2398 93.4031 39.8798C92.9585 39.4998 92.4533 39.3198 91.8875 39.3198ZM96.3535 44.9398V35.7798H97.1821V44.9398H96.3535ZM104.417 38.6598H105.245V44.9198H104.417V43.6998C103.831 44.6198 102.982 45.0798 101.85 45.0798C100.941 45.0798 100.173 44.7598 99.5465 44.1198C98.8998 43.4798 98.5966 42.6998 98.5966 41.7798C98.5966 40.8598 98.92 40.0798 99.5465 39.4398C100.193 38.7998 100.961 38.4798 101.85 38.4798C102.982 38.4798 103.831 38.9398 104.417 39.8598V38.6598ZM100.153 43.5598C100.638 44.0398 101.224 44.2798 101.931 44.2798C102.638 44.2798 103.224 44.0398 103.709 43.5598C104.194 43.0798 104.437 42.4998 104.437 41.7998C104.437 41.0998 104.194 40.5198 103.709 40.0398C103.224 39.5598 102.638 39.3198 101.931 39.3198C101.224 39.3198 100.638 39.5598 100.153 40.0398C99.6677 40.5198 99.4252 41.0998 99.4252 41.7998C99.4252 42.4998 99.6677 43.0798 100.153 43.5598ZM109.994 38.5198C110.762 38.5198 111.368 38.7598 111.813 39.2198C112.257 39.6798 112.48 40.2998 112.48 41.0998V44.9398H111.651V41.0998C111.651 40.5398 111.51 40.0998 111.207 39.7998C110.904 39.4998 110.479 39.3398 109.934 39.3398C109.327 39.3398 108.822 39.5398 108.458 39.9198C108.074 40.2998 107.892 40.8798 107.892 41.6798V44.9598H107.064V38.6598H107.892V39.6398C108.337 38.8998 109.044 38.5198 109.994 38.5198ZM117.047 45.0798C116.097 45.0798 115.289 44.7598 114.662 44.1398C114.036 43.5198 113.712 42.7198 113.712 41.7998C113.712 40.8798 114.036 40.0998 114.662 39.4598C115.289 38.8198 116.097 38.5198 117.047 38.5198C117.673 38.5198 118.239 38.6598 118.724 38.9598C119.229 39.2598 119.593 39.6598 119.815 40.1598L119.128 40.5398C118.967 40.1598 118.684 39.8598 118.32 39.6398C117.936 39.4198 117.512 39.2998 117.047 39.2998C116.34 39.2998 115.754 39.5398 115.269 40.0198C114.784 40.4998 114.541 41.0798 114.541 41.7798C114.541 42.4798 114.784 43.0598 115.269 43.5398C115.754 44.0198 116.34 44.2598 117.047 44.2598C117.512 44.2598 117.936 44.1398 118.32 43.9198C118.684 43.6998 118.987 43.3998 119.189 43.0198L119.876 43.4198C119.613 43.9198 119.229 44.3198 118.724 44.6198C118.219 44.9398 117.673 45.0798 117.047 45.0798ZM123.958 38.5198C124.888 38.5198 125.656 38.8398 126.242 39.4998C126.828 40.1598 127.111 40.9398 127.111 41.8198C127.111 41.9198 127.111 42.0398 127.09 42.1998H121.513C121.594 42.8398 121.877 43.3398 122.321 43.7198C122.786 44.0998 123.352 44.2798 124.019 44.2798C124.504 44.2798 124.908 44.1798 125.272 43.9798C125.615 43.7798 125.878 43.5198 126.06 43.1998L126.787 43.6198C126.504 44.0598 126.12 44.4198 125.656 44.6798C125.171 44.9398 124.625 45.0598 123.999 45.0598C123.008 45.0598 122.2 44.7598 121.574 44.1398C120.947 43.5198 120.644 42.7398 120.644 41.7798C120.644 40.8398 120.947 40.0598 121.574 39.4398C122.2 38.8198 122.988 38.5198 123.958 38.5198ZM123.958 39.3198C123.291 39.3198 122.746 39.5198 122.301 39.8998C121.856 40.2798 121.594 40.7998 121.513 41.4198H126.242C126.161 40.7598 125.898 40.2398 125.474 39.8798C125.029 39.4998 124.524 39.3198 123.958 39.3198ZM128.99 44.8598C128.849 44.9998 128.687 45.0598 128.505 45.0598C128.303 45.0598 128.141 44.9998 128.02 44.8598C127.879 44.7198 127.818 44.5598 127.818 44.3798C127.818 44.1798 127.879 44.0198 128.02 43.8998C128.161 43.7598 128.323 43.6998 128.505 43.6998C128.707 43.6998 128.869 43.7598 128.99 43.8998C129.131 44.0398 129.192 44.1998 129.192 44.3798C129.192 44.5598 129.111 44.7198 128.99 44.8598ZM135.78 36.1598H136.609V44.9398H135.78V43.7198C135.194 44.6398 134.345 45.0998 133.214 45.0998C132.304 45.0998 131.536 44.7798 130.91 44.1398C130.263 43.4998 129.96 42.7198 129.96 41.7998C129.96 40.8798 130.283 40.0998 130.91 39.4598C131.556 38.8198 132.324 38.4998 133.214 38.4998C134.345 38.4998 135.194 38.9598 135.78 39.8798V36.1598ZM131.516 43.5598C132.001 44.0398 132.587 44.2798 133.294 44.2798C134.002 44.2798 134.588 44.0398 135.073 43.5598C135.558 43.0798 135.8 42.4998 135.8 41.7998C135.8 41.0998 135.558 40.5198 135.073 40.0398C134.588 39.5598 134.002 39.3198 133.294 39.3198C132.587 39.3198 132.001 39.5598 131.516 40.0398C131.031 40.5198 130.789 41.0998 130.789 41.7998C130.789 42.4998 131.031 43.0798 131.516 43.5598ZM139.236 37.1598C139.114 37.2798 138.973 37.3398 138.811 37.3398C138.65 37.3398 138.508 37.2798 138.387 37.1598C138.266 37.0398 138.205 36.8998 138.205 36.7398C138.205 36.5798 138.266 36.4398 138.387 36.3198C138.508 36.1998 138.65 36.1398 138.811 36.1398C138.973 36.1398 139.114 36.1998 139.236 36.3198C139.357 36.4398 139.417 36.5798 139.417 36.7398C139.417 36.8998 139.357 37.0398 139.236 37.1598ZM138.387 44.9398V38.6598H139.215V44.9198H138.387V44.9398ZM146.45 38.6598H147.279V44.6798C147.279 45.5798 146.975 46.2998 146.349 46.8198C145.722 47.3398 144.975 47.5998 144.106 47.5998C142.61 47.5998 141.62 47.0798 141.095 46.0798L141.822 45.6598C142.206 46.4198 142.954 46.7998 144.086 46.7998C144.813 46.7998 145.379 46.5998 145.803 46.2198C146.228 45.8398 146.43 45.3198 146.43 44.6798V43.6998C145.844 44.6198 144.995 45.0798 143.863 45.0798C142.954 45.0798 142.186 44.7598 141.56 44.1198C140.913 43.4798 140.61 42.6998 140.61 41.7798C140.61 40.8598 140.933 40.0798 141.56 39.4398C142.206 38.7998 142.974 38.4798 143.863 38.4798C144.995 38.4798 145.844 38.9398 146.43 39.8598V38.6598H146.45ZM142.166 43.5598C142.651 44.0398 143.237 44.2798 143.944 44.2798C144.651 44.2798 145.237 44.0398 145.722 43.5598C146.207 43.0798 146.45 42.4998 146.45 41.7998C146.45 41.0998 146.207 40.5198 145.722 40.0398C145.237 39.5598 144.651 39.3198 143.944 39.3198C143.237 39.3198 142.651 39.5598 142.166 40.0398C141.681 40.5198 141.438 41.0998 141.438 41.7998C141.459 42.4998 141.701 43.0798 142.166 43.5598ZM149.906 37.1598C149.784 37.2798 149.643 37.3398 149.481 37.3398C149.32 37.3398 149.178 37.2798 149.057 37.1598C148.936 37.0398 148.875 36.8998 148.875 36.7398C148.875 36.5798 148.936 36.4398 149.057 36.3198C149.178 36.1998 149.32 36.1398 149.481 36.1398C149.643 36.1398 149.784 36.1998 149.906 36.3198C150.027 36.4398 150.087 36.5798 150.087 36.7398C150.087 36.8998 150.027 37.0398 149.906 37.1598ZM149.057 44.9398V38.6598H149.885V44.9198H149.057V44.9398ZM155.018 39.4598H153.2V43.2598C153.2 43.5998 153.26 43.8398 153.402 43.9998C153.543 44.1398 153.745 44.2198 154.008 44.2198C154.271 44.2198 154.614 44.2198 155.018 44.1998V44.9198C154.129 45.0598 153.462 44.9998 153.018 44.7398C152.573 44.4798 152.351 43.9798 152.351 43.2598V39.4598H151.017V38.6598H152.351V37.1598L153.179 36.8998V38.6598H154.998V39.4598H155.018ZM161.485 38.6598H162.314V44.9198H161.485V43.6998C160.899 44.6198 160.05 45.0798 158.919 45.0798C158.009 45.0798 157.241 44.7598 156.615 44.1198C155.968 43.4798 155.665 42.6998 155.665 41.7798C155.665 40.8598 155.988 40.0798 156.615 39.4398C157.261 38.7998 158.029 38.4798 158.919 38.4798C160.05 38.4798 160.899 38.9398 161.485 39.8598V38.6598ZM157.221 43.5598C157.706 44.0398 158.292 44.2798 158.999 44.2798C159.707 44.2798 160.293 44.0398 160.778 43.5598C161.263 43.0798 161.505 42.4998 161.505 41.7998C161.505 41.0998 161.263 40.5198 160.778 40.0398C160.293 39.5598 159.707 39.3198 158.999 39.3198C158.292 39.3198 157.706 39.5598 157.221 40.0398C156.736 40.5198 156.494 41.0998 156.494 41.7998C156.494 42.4998 156.736 43.0798 157.221 43.5598ZM164.092 44.9398V35.7798H164.92V44.9398H164.092Z" fill="#A0A1A1"/>
<path fill-rule="evenodd" clip-rule="evenodd" d="M87.1587 12.46C87.1587 18.16 87.1587 23.84 87.1587 29.54H90.3516V22.92H97.081V19.76H90.3516V15.62H97.2831V12.46H87.1587ZM139.438 29.54V26.38H132.041V22.58H138.831V19.42H132.041V15.62H139.438V12.46H128.848C128.848 18.16 128.848 23.84 128.848 29.54H139.438ZM126.08 29.54V26.38H118.684V22.58H125.474V19.42H118.684V15.62H126.08V12.46H115.491C115.491 18.16 115.491 23.84 115.491 29.54H126.08ZM113.268 29.54L109.085 22.68C111.227 22 112.763 20.02 112.763 17.7C112.763 14.82 110.398 12.46 107.468 12.46H100.031C100.031 18.16 100.031 23.84 100.031 29.54H103.224V22.92H105.629L109.671 29.54C110.863 29.54 112.055 29.54 113.268 29.54ZM107.468 19.76H103.224V15.62H107.468C108.62 15.62 109.57 16.54 109.57 17.7C109.55 18.82 108.62 19.76 107.468 19.76Z" fill="#A0A1A1"/>
</svg>
