<svg width="236" height="48" viewBox="0 0 236 48" fill="none" xmlns="http://www.w3.org/2000/svg">
<path d="M0 24.9231V6.54908C0 2.96218 2.90749 0.0540839 6.49439 0.0540839H8.69744C9.2163 0.0540839 9.63689 0.474672 9.63689 0.99354V26.5395C9.63689 33.814 13.1804 37.9174 20.0191 37.9174C27.1691 37.9174 30.2774 33.5027 30.2774 26.5395V0.99354C30.2774 0.474672 30.698 0.0540839 31.2163 0.0540839H38.9755C39.4937 0.0540839 39.9143 0.474672 39.9143 0.99354V25.7313C39.9143 39.2225 32.3914 47.1807 20.0191 47.1807C6.4657 47.1807 0 37.7928 0 24.9231Z" fill="#424F9B"/>
<path d="M80.5354 -1.45499e-05H82.5346C85.9163 -1.45499e-05 88.1163 3.55942 86.6037 6.58411L69.0568 45.4552C67.9196 47.7303 64.6843 47.7626 63.5019 45.5101L42.3114 1.37529C41.9829 0.750205 42.4365 -1.45499e-05 43.1428 -1.45499e-05H52.0838C52.4348 -1.45499e-05 52.7565 0.195935 52.9182 0.507865L65.8472 27.5488C66.2018 28.2349 67.1871 28.2227 67.5252 27.5286L79.6912 0.527398C79.8487 0.20509 80.1765 -1.45499e-05 80.5354 -1.45499e-05Z" fill="#424F9B"/>
<path d="M93.6336 32.1704C93.1557 32.1704 92.7088 31.7974 92.6893 31.2535C92.6838 31.1143 92.682 30.9727 92.682 30.8293C92.682 26.4146 95.9771 23.244 100.018 23.244C101.149 23.244 102.166 23.498 103.09 23.9491C103.728 24.2598 103.791 25.148 103.214 25.5588L94.1751 31.9946C94.0048 32.1154 93.8168 32.1704 93.6336 32.1704ZM100.018 14.4154C91.0027 14.4154 83.7288 21.7521 83.7288 30.8293C83.7288 39.7813 91.314 47.1797 100.764 47.1797C105.981 47.1797 111.145 44.9638 113.985 41.4386C114.321 41.0229 114.258 40.4143 113.835 40.0889L108.288 35.8183C108.12 35.6889 107.922 35.626 107.725 35.626C107.459 35.626 107.195 35.7402 107.006 35.9563C105.502 37.6814 103.133 38.4139 100.764 38.4139H100.54C99.6323 38.4133 99.2588 37.2492 99.9968 36.7205L115.104 25.8976C115.447 25.6522 115.596 25.2041 115.445 24.8104C113.296 19.2445 107.49 14.4154 100.018 14.4154ZM93.6336 33.5561C94.1159 33.5561 94.581 33.4065 94.9784 33.1233L104.018 26.6875C104.693 26.2065 105.057 25.4239 104.988 24.5949C104.92 23.7714 104.438 23.0646 103.698 22.7038C102.548 22.1428 101.31 21.8584 100.018 21.8584C95.1274 21.8584 91.2963 25.7987 91.2963 30.8293C91.2963 30.9898 91.2987 31.1479 91.3042 31.3036C91.3506 32.5666 92.3737 33.5561 93.6336 33.5561ZM100.018 15.801C107.075 15.801 112.083 20.353 114.017 24.9728L99.1898 35.5937C98.3675 36.1828 98.0232 37.2254 98.3321 38.188C98.641 39.1513 99.528 39.7983 100.539 39.799L100.764 39.7996C103.647 39.7996 106.118 38.8687 107.772 37.1698L112.624 40.9051C110.008 43.8876 105.41 45.7946 100.764 45.7946C92.135 45.7946 85.1144 39.0811 85.1144 30.8293C85.1144 22.5427 91.7999 15.801 100.018 15.801Z" fill="white"/>
<path d="M133.225 34.3775H125.336C124.724 34.3775 124.228 33.8574 124.228 33.2158V4.65126C124.228 4.00908 124.724 3.48899 125.336 3.48899H133.853C142.444 3.48899 148.226 9.60491 148.226 18.715C148.226 28.2329 142.333 34.3775 133.225 34.3775ZM134.537 -0.000238097H120.975C120.364 -0.000238097 119.868 0.52046 119.868 1.16202V46.0184C119.868 46.6606 120.364 47.1807 120.975 47.1807H123.121C123.732 47.1807 124.228 46.6606 124.228 46.0184V39.0283C124.228 38.3868 124.724 37.8667 125.336 37.8667H133.502C145.141 37.8667 152.651 30.0062 152.651 17.8427C152.651 7.84076 144.697 -0.000238097 134.537 -0.000238097Z" fill="white"/>
<path d="M182.588 44.8537V46.019C182.588 46.6606 182.092 47.1807 181.481 47.1807H158.21C157.599 47.1807 157.103 46.6606 157.103 46.019V1.16202C157.103 0.52046 157.599 0.00037205 158.21 0.00037205H176.936C177.548 0.00037205 178.043 0.52046 178.043 1.16202V2.32734C178.043 2.9689 177.548 3.4896 176.936 3.4896H162.57C161.958 3.4896 161.463 4.00969 161.463 4.65125V18.9879C161.463 19.6294 161.958 20.1501 162.57 20.1501H179.633C180.245 20.1501 180.741 20.6702 180.741 21.3118V22.4771C180.741 23.1187 180.245 23.6394 179.633 23.6394H162.57C161.958 23.6394 161.463 24.1594 161.463 24.801V42.5298C161.463 43.1713 161.958 43.692 162.57 43.692H181.481C182.092 43.692 182.588 44.2121 182.588 44.8537Z" fill="white"/>
<path d="M235.766 1.16414V45.7544C235.766 46.3959 235.27 46.916 234.658 46.916H232.513C231.902 46.916 231.406 46.3959 231.406 45.7544V10.2828C231.406 9.33538 230.383 8.78599 229.651 9.34026L226.408 11.8021L212.241 22.5427C211.854 22.8369 211.331 22.8363 210.944 22.5427L196.794 11.8021L193.543 9.34026L193.532 9.33172C192.799 8.77989 191.779 9.32989 191.779 10.2754V45.7544C191.779 46.3959 191.283 46.916 190.671 46.916H188.535C187.924 46.916 187.428 46.3959 187.428 45.7544V1.16414C187.428 0.203927 188.475 -0.341798 189.205 0.238113L209.689 16.5415L210.927 17.5298L211.592 18.0627L212.266 17.5298L213.504 16.5415L233.989 0.238113C234.718 -0.341798 235.766 0.203927 235.766 1.16414Z" fill="white"/>
</svg>
